<svg width="32" height="32" viewBox="0 0 32 32" fill="none" xmlns="http://www.w3.org/2000/svg">
<path d="M16 0C7.168 0 0 7.168 0 16C0 24.832 7.168 32 16 32C24.832 32 32 24.832 32 16C32 7.168 24.832 0 16 0Z" fill="white"/>
<g clip-path="url(#clip0_42_88)">
<path d="M12.7662 13.1556H10.2328V16.5333H12.7662V26.6667H16.9884V16.5333H20.0639L20.3662 13.1556H16.9884V11.7479C16.9884 10.9414 17.1505 10.6222 17.93 10.6222H20.3662V6.39999H17.1505C14.1139 6.39999 12.7662 7.73675 12.7662 10.2971V13.1556Z" fill="#1BAFFF"/>
</g>
<defs>
<clipPath id="clip0_42_88">
<rect width="20.2667" height="20.2667" fill="white" transform="translate(5.1662 6.39999)"/>
</clipPath>
</defs>
</svg>
